<svg width="689" height="442" viewBox="0 0 689 442" fill="none" xmlns="http://www.w3.org/2000/svg">
<path d="M169.97 269.17C148.47 181.782 187.622 76.1214 300.97 24.1709C396.97 -19.8284 517.97 0.671661 592.75 108.67C619.111 146.742 627.79 190.89 625.095 233.172M625.095 233.172C620.973 297.848 590.239 358.157 555.47 385.67C497.97 431.17 386.477 447.504 275.47 401.67M625.095 233.172C645.892 240.172 686.14 276.549 686.14 327.17C686.14 386.17 584.47 416.67 536.97 398.229M170.293 173.672C136.793 179.172 2.5 258.17 2.5 333.67C2.5 386.17 102.451 398.17 120.451 382.67M272.97 295.67C297.97 292.67 333.272 310.999 321.47 330.67C315.358 340.857 300.714 337.208 288.97 331.625M449.97 262.67C424.47 243.17 358.97 246.17 316.97 262.67M469.47 262.67C483.47 253.17 548.97 239.17 578.47 254.17M609.653 304.672C602.427 294.172 552.47 285.17 545.47 320.17C539.47 350.17 586.117 347.172 590.617 344.172M291.47 350.672C291.47 399.549 251.847 439.172 202.97 439.172C154.093 439.172 114.47 399.549 114.47 350.672C114.47 301.795 154.093 262.172 202.97 262.172C251.847 262.172 291.47 301.795 291.47 350.672ZM455.97 318.17C447.47 317.67 438.47 342.17 449.97 350.17C461.47 358.17 474.97 315.17 455.97 318.17Z" stroke="#EFEEE7" stroke-width="5"/>
</svg>
