<svg width="24" height="24" viewBox="0 0 24 24" fill="none" xmlns="http://www.w3.org/2000/svg">
<path d="M8.2258 3C5.32258 3 3 5.33333 3 8.25V15.75C3 18.6667 5.32258 21 8.2258 21H15.7742C18.6774 21 21 18.6667 21 15.75V8.25C21 5.33333 18.6774 3 15.7742 3H8.2258ZM8.2258 4.33333H15.7742C17.9309 4.33333 19.5899 6.08333 19.5899 8.16667V15.75C19.5899 17.9167 17.8479 19.5833 15.7742 19.5833H8.2258C6.06912 19.5833 4.41014 17.8333 4.41014 15.75V8.25C4.41014 6.08333 6.06912 4.33333 8.2258 4.33333ZM17.1843 5.75C16.6037 5.75 16.1889 6.25 16.1889 6.75C16.1889 7.33333 16.6866 7.75 17.1843 7.75C17.682 7.75 18.1797 7.25 18.1797 6.75C18.1797 6.25 17.765 5.75 17.1843 5.75ZM11.9585 7.16667C9.30414 7.16667 7.14747 9.33333 7.14747 12C7.14747 14.6667 9.30414 16.8333 11.9585 16.8333C14.6129 16.8333 16.7696 14.6667 16.7696 12C16.7696 9.33333 14.6129 7.16667 11.9585 7.16667ZM11.9585 8.5C13.8664 8.5 15.4424 10.0833 15.4424 12C15.4424 13.9167 13.8664 15.5 11.9585 15.5C10.0507 15.5 8.47465 13.9167 8.47465 12C8.47465 10.0833 10.0507 8.5 11.9585 8.5Z" fill="#EFEEE7"/>
</svg>
