<svg width="100" height="91" viewBox="0 0 100 91" fill="none" xmlns="http://www.w3.org/2000/svg">
  <style>
    path {
      /* Default color for Light Mode (Dark Grey/Black) */
      fill: #101118; /* site var(--main-dark) color value. */
    }
    @media (prefers-color-scheme: dark) {
      path {
        fill: #EFEEE7; /* site var(--cream) color value. */
      }
    }
  </style>
  <path d="M78.0383 33.6975L71.9363 44.2833H51.6404L42.0493 27.6468L50.5081 12.9754L54.165 19.3191L49.1235 28.0636L53.4954 35.6462L68.2201 10.1035L71.877 16.4472L58.7411 39.2316H67.5341L74.3814 27.3551L78.0383 33.6975Z" />
  <path d="M86.9989 54.3867H65.3072L77.1719 74.9698L73.7559 80.8967L55.5609 49.335H89.9118L86.9989 54.3867Z" />
  <path d="M62.8306 72.4465H38.3999L25.0762 49.335H49.5081L57.5886 63.3535H50.4009L45.232 54.3867H33.8124L41.3116 67.3948H59.9189L62.8306 72.4465Z" />
  <path d="M45.5801 44.2833H13.8482L10.0879 37.7603L12.9995 32.7086L16.7599 39.2316H35.487L23.3826 18.2342L26.9727 12.0067L45.5801 44.2833Z" />
</svg>
