<svg width="24" height="24" viewBox="0 0 24 24" fill="none" xmlns="http://www.w3.org/2000/svg">
<path fill-rule="evenodd" clip-rule="evenodd" d="M18.4171 3.75C19.4293 3.75024 20.2498 4.57072 20.25 5.58289V18.4171C20.2498 19.4293 19.4293 20.2498 18.4171 20.25H5.58289C4.57072 20.2498 3.75024 19.4293 3.75 18.4171V5.58289C3.75024 4.57072 4.57072 3.75024 5.58289 3.75H18.4171ZM6.27878 17.9589H8.73907V10.014H6.27878V17.9589ZM15.0676 9.77133C13.3817 9.77133 12.6717 11.0846 12.6717 11.0846V10.014H10.3121V17.9589H12.6717V13.7886C12.6717 12.6712 13.1867 12.006 14.1713 12.006C15.076 12.0063 15.5107 12.6454 15.5107 13.7886V17.9589H17.9589V12.9285C17.9588 10.8007 16.7524 9.77145 15.0676 9.77133ZM7.49734 6.04211C6.69359 6.04211 6.04211 6.69886 6.04211 7.50842C6.04229 8.31784 6.6937 8.97372 7.49734 8.97372C8.30091 8.97363 8.95139 8.31778 8.95157 7.50842C8.95157 6.69891 8.30102 6.04221 7.49734 6.04211Z" fill="#EFEEE7"/>
</svg>
